<svg version="1.1" id="Layer_1" xmlns="http://www.w3.org/2000/svg" xmlns:xlink="http://www.w3.org/1999/xlink" x="0px" y="0px"
	 width="100%" viewBox="0 0 1517 465" enable-background="new 0 0 1517 465" xml:space="preserve">
<path fill="#000000" opacity="1.000000" stroke="none" 
	d="
M0.999998,119.000000 
	C1.000000,98.975090 1.000000,78.950188 1.377833,58.464668 
	C4.561471,61.576069 6.715877,65.160568 12.578220,65.147942 
	C109.211418,64.939827 205.845200,65.001221 302.478851,64.997314 
	C309.112915,64.997047 311.988159,62.147266 311.996857,55.579311 
	C312.009186,46.249180 312.257355,36.909878 311.926270,27.591496 
	C311.607361,18.615101 314.366119,9.105832 308.000000,1.000000 
	C711.213196,1.000000 1114.426392,1.000000 1518.000000,1.000000 
	C1518.000000,73.691185 1518.000000,146.382965 1517.657471,219.834656 
	C1516.881104,219.941635 1516.191650,219.339294 1516.050903,218.628342 
	C1512.956787,203.000839 1506.321899,188.866348 1496.123535,176.844467 
	C1477.770386,155.209579 1453.766968,143.827011 1425.620605,142.222076 
	C1413.871826,141.552155 1401.809082,142.284241 1390.194458,144.215286 
	C1365.826660,148.266663 1346.007935,160.859482 1331.239258,180.573151 
	C1316.614380,200.094772 1310.917725,222.869980 1310.142578,246.882828 
	C1309.896118,254.517395 1311.038574,262.245300 1312.052490,269.862976 
	C1315.148071,293.121918 1325.288940,312.608704 1342.845337,328.477081 
	C1362.599731,346.332428 1386.281738,353.308960 1412.045776,354.954346 
	C1430.020630,356.102325 1447.451904,353.260284 1463.949707,345.931305 
	C1480.691528,338.493896 1495.011230,327.891266 1505.845093,312.820618 
	C1507.847656,310.034821 1506.626465,309.195984 1504.563599,308.169434 
	C1490.314087,301.078430 1476.047852,294.021393 1463.350098,287.728241 
	C1453.966187,293.707428 1445.900757,300.212311 1436.767334,304.372284 
	C1419.518433,312.228607 1393.251221,308.483459 1381.226318,290.641144 
	C1376.917725,284.248199 1373.679077,277.331329 1374.088135,269.000000 
	C1422.373535,269.000000 1470.186768,269.000000 1518.000000,269.000000 
	C1518.000000,334.646759 1518.000000,400.293549 1518.000000,466.000000 
	C1115.641724,466.000000 713.283508,466.000000 310.171570,465.686584 
	C312.169983,462.696503 313.080322,459.537048 313.076782,455.625458 
	C312.980743,348.801331 313.000275,241.977097 312.999451,135.152878 
	C312.999390,127.277908 309.682587,124.012779 301.607605,124.004623 
	C285.942291,123.988808 270.276031,124.093422 254.612213,123.940048 
	C250.216507,123.897011 247.225128,125.437653 244.943695,129.203110 
	C233.024963,148.874832 220.941086,168.446442 209.003860,188.107040 
	C194.568573,211.881989 180.385513,235.812057 165.742340,259.457642 
	C161.129227,266.906830 154.938187,267.532593 149.541779,260.027344 
	C140.297180,247.170181 131.113541,234.268784 121.796486,221.464417 
	C118.765427,217.298843 114.624283,214.978867 109.279800,214.984406 
	C78.449135,215.016388 47.618412,214.991730 16.787722,215.007446 
	C11.069906,215.010361 6.707970,217.619080 3.330952,222.134140 
	C2.753897,222.905640 1.786860,223.385437 0.999996,224.000000 
	C1.000000,205.641754 1.000000,187.283508 1.377242,168.464600 
	C4.944281,171.351669 7.370445,175.151337 13.188894,175.124603 
	C61.170551,174.904190 109.153656,175.006714 157.136322,174.991577 
	C163.205566,174.989655 166.973419,171.303635 166.988052,165.334015 
	C167.024368,150.506134 167.018311,135.678070 166.991135,120.850136 
	C166.980011,114.776985 163.307297,111.013748 157.320511,111.011269 
	C108.838020,110.991196 60.355526,111.014778 11.873070,110.975357 
	C7.406820,110.971725 4.694556,113.127121 2.967785,117.044167 
	C2.620424,117.832138 1.671542,118.354935 0.999998,119.000000 
M1186.504761,177.996765 
	C1179.197754,191.960800 1171.886597,205.922623 1164.585327,219.889633 
	C1159.485229,229.645615 1154.398682,239.408661 1149.011597,249.732956 
	C1117.244019,189.734879 1085.831055,130.406738 1054.558594,71.343658 
	C1035.251221,71.343658 1016.175354,71.343658 997.342285,71.343658 
	C997.342285,164.755829 997.342285,257.824127 997.342285,350.654663 
	C1018.758179,350.654663 1039.830933,350.654663 1061.326416,350.654663 
	C1061.326416,297.679565 1061.326416,245.049225 1061.326416,192.054214 
	C1062.004517,192.622192 1062.340088,192.777878 1062.480225,193.038635 
	C1077.173828,220.365845 1091.863525,247.695068 1106.527954,275.037872 
	C1114.660156,290.200958 1122.719727,305.403107 1130.918335,320.530121 
	C1131.496338,321.596497 1132.940674,322.873657 1134.002197,322.892029 
	C1144.266968,323.069641 1154.536133,322.998596 1164.328979,322.998596 
	C1174.754639,303.229492 1184.929688,284.042389 1195.004150,264.802612 
	C1205.378662,244.989929 1215.639404,225.117722 1225.984375,205.289597 
	C1228.976318,199.555237 1232.087402,193.883072 1235.143799,188.182373 
	C1235.646851,188.286163 1236.150024,188.389954 1236.653076,188.493744 
	C1236.653076,242.603271 1236.653076,296.712799 1236.653076,350.692352 
	C1258.682251,350.692352 1279.754150,350.692352 1300.279419,350.692352 
	C1300.279419,257.371613 1300.279419,164.360703 1300.279419,71.000603 
	C1281.102051,71.000603 1262.642578,70.939423 1244.185791,71.134552 
	C1242.918945,71.147942 1241.238037,72.833046 1240.491333,74.158516 
	C1237.178711,80.038658 1234.101440,86.053139 1231.002563,92.051796 
	C1216.312134,120.487999 1201.642456,148.934952 1186.504761,177.996765 
M701.600464,352.999878 
	C706.429871,353.666565 711.242737,354.722656 716.091675,354.927643 
	C731.221191,355.567169 746.277222,354.810760 761.024902,350.988220 
	C782.754028,345.356171 801.307251,334.235840 815.437317,316.855988 
	C830.511475,298.314850 837.200806,276.254639 837.789734,252.622253 
	C838.044128,242.415375 836.879883,231.970505 834.822205,221.949524 
	C830.082642,198.867203 818.540161,179.402512 800.026978,164.668396 
	C782.354797,150.603577 761.578918,143.658646 739.297180,142.204697 
	C725.073486,141.276520 710.779785,141.655228 696.568420,144.846741 
	C666.356445,151.631592 642.761230,167.085342 627.812256,194.645813 
	C615.721375,216.937042 613.372864,241.016678 616.186279,265.641937 
	C617.721863,279.082306 622.088562,291.911682 628.937805,303.810822 
	C637.773315,319.160736 649.752014,331.249512 665.116211,340.007141 
	C676.243042,346.349365 688.149231,350.572662 701.600464,352.999878 
M498.500000,71.000000 
	C484.070099,71.000000 469.640167,71.000000 455.285156,71.000000 
	C455.285156,164.643082 455.285156,257.710297 455.285156,350.711975 
	C475.976318,350.711975 496.381073,350.711975 517.180908,350.711975 
	C517.180908,314.687012 517.180908,278.948395 517.180908,242.817627 
	C541.986633,242.817627 566.396179,242.817627 590.845459,242.817627 
	C590.851868,224.439346 595.939453,207.824188 604.755798,191.787811 
	C575.374817,191.787811 546.301086,191.787811 517.283569,191.787811 
	C517.283569,168.365952 517.283569,145.294815 517.283569,121.828293 
	C557.637085,121.828293 597.708557,121.828293 637.711914,121.828293 
	C637.711914,104.690254 637.711914,87.951797 637.711914,71.000000 
	C591.449463,71.000000 545.474731,71.000000 498.500000,71.000000 
M860.964539,210.694321 
	C865.717346,225.105652 867.680969,239.902237 866.970154,255.045883 
	C866.848450,257.638977 866.256958,260.206360 866.012878,262.797882 
	C864.633545,277.442932 860.348083,291.131836 852.757812,303.771729 
	C851.370667,306.081696 849.234985,308.523010 849.170288,310.949738 
	C848.816650,324.209351 849.001953,337.483368 849.001953,350.726685 
	C868.945190,350.726685 888.350525,350.726685 908.000000,350.726685 
	C908.000000,348.814362 908.000000,347.173126 908.000000,345.531921 
	C908.000000,314.032593 907.957092,282.533112 908.044678,251.034012 
	C908.058350,246.124756 908.350708,241.170380 909.067932,236.318741 
	C910.453796,226.943954 915.181458,219.143631 922.431946,213.296097 
	C936.849609,201.668243 953.730652,196.829559 972.080261,197.088257 
	C976.200928,197.146347 976.985962,195.672333 977.109558,191.871185 
	C977.467590,180.857529 978.253113,169.854614 979.036682,158.859299 
	C979.428711,153.358459 980.181702,147.883362 980.816040,141.981400 
	C951.408386,141.287933 925.948364,149.874054 906.555542,172.775436 
	C902.004639,164.504318 897.565979,156.301163 892.941895,148.203903 
	C892.359436,147.183975 890.807739,146.106140 889.693909,146.094162 
	C876.247192,145.949524 862.798340,146.000504 849.000549,146.000504 
	C849.000549,159.562897 848.972168,172.689590 849.056396,185.815536 
	C849.062866,186.826355 849.823730,187.850327 850.298279,188.837265 
	C853.693909,195.899490 857.106323,202.953674 860.964539,210.694321 
z"/>
<path fill="#FFFFFF" opacity="1.000000" stroke="none" 
	d="
M0.999996,224.468658 
	C1.786860,223.385437 2.753897,222.905640 3.330952,222.134140 
	C6.707970,217.619080 11.069906,215.010361 16.787722,215.007446 
	C47.618412,214.991730 78.449135,215.016388 109.279800,214.984406 
	C114.624283,214.978867 118.765427,217.298843 121.796486,221.464417 
	C131.113541,234.268784 140.297180,247.170181 149.541779,260.027344 
	C154.938187,267.532593 161.129227,266.906830 165.742340,259.457642 
	C180.385513,235.812057 194.568573,211.881989 209.003860,188.107040 
	C220.941086,168.446442 233.024963,148.874832 244.943695,129.203110 
	C247.225128,125.437653 250.216507,123.897011 254.612213,123.940048 
	C270.276031,124.093422 285.942291,123.988808 301.607605,124.004623 
	C309.682587,124.012779 312.999390,127.277908 312.999451,135.152878 
	C313.000275,241.977097 312.980743,348.801331 313.076782,455.625458 
	C313.080322,459.537048 312.169983,462.696503 309.708923,465.686584 
	C289.312439,466.000000 268.624878,466.000000 247.758850,465.693573 
	C243.904266,461.637360 242.989471,456.967682 242.990692,451.941254 
	C243.005142,392.453522 243.000000,332.965820 243.000000,273.478088 
	C243.000000,271.713501 243.000000,269.948914 243.000000,267.654022 
	C237.755829,268.764648 236.590454,273.036011 234.352875,276.166718 
	C217.723373,299.433533 201.249054,322.813202 184.398575,345.918610 
	C181.099655,350.442108 176.957611,356.137695 172.178894,357.395081 
	C164.102417,359.520172 155.202637,358.854340 146.657944,358.733337 
	C141.629776,358.662109 137.383682,356.039551 134.333710,351.838806 
	C132.528687,349.352753 130.678085,346.899292 128.900146,344.394165 
	C113.475510,322.660858 98.081055,300.906067 82.630646,279.191132 
	C79.599388,274.930817 76.365395,270.814789 73.224899,266.632202 
	C72.721596,266.757324 72.218285,266.882446 71.714973,267.007568 
	C71.476654,268.799957 71.035316,270.591888 71.031052,272.384827 
	C70.982239,292.880493 71.001282,313.376312 70.999344,333.872070 
	C70.998604,341.687073 67.757729,344.996399 60.096363,344.998810 
	C46.765781,345.002991 33.435116,345.028259 20.104652,344.987854 
	C13.637042,344.968262 6.739648,346.396851 1.972875,340.037262 
	C1.850259,339.873657 1.333135,340.005798 1.000000,340.000000 
	C1.000000,301.645782 1.000000,263.291534 0.999996,224.468658 
z"/>
<path fill="#000000" opacity="1.000000" stroke="none" 
	d="
M1.000000,340.468689 
	C1.333135,340.005798 1.850259,339.873657 1.972875,340.037262 
	C6.739648,346.396851 13.637042,344.968262 20.104652,344.987854 
	C33.435116,345.028259 46.765781,345.002991 60.096363,344.998810 
	C67.757729,344.996399 70.998604,341.687073 70.999344,333.872070 
	C71.001282,313.376312 70.982239,292.880493 71.031052,272.384827 
	C71.035316,270.591888 71.476654,268.799957 71.714973,267.007568 
	C72.218285,266.882446 72.721596,266.757324 73.224899,266.632202 
	C76.365395,270.814789 79.599388,274.930817 82.630646,279.191132 
	C98.081055,300.906067 113.475510,322.660858 128.900146,344.394165 
	C130.678085,346.899292 132.528687,349.352753 134.333710,351.838806 
	C137.383682,356.039551 141.629776,358.662109 146.657944,358.733337 
	C155.202637,358.854340 164.102417,359.520172 172.178894,357.395081 
	C176.957611,356.137695 181.099655,350.442108 184.398575,345.918610 
	C201.249054,322.813202 217.723373,299.433533 234.352875,276.166718 
	C236.590454,273.036011 237.755829,268.764648 243.000000,267.654022 
	C243.000000,269.948914 243.000000,271.713501 243.000000,273.478088 
	C243.000000,332.965820 243.005142,392.453522 242.990692,451.941254 
	C242.989471,456.967682 243.904266,461.637360 247.290192,465.693573 
	C165.096527,466.000000 83.193062,466.000000 1.000000,466.000000 
	C1.000000,424.312897 1.000000,382.625092 1.000000,340.468689 
z"/>
<path fill="#FFFFFF" opacity="1.000000" stroke="none" 
	d="
M1518.000000,268.531342 
	C1470.186768,269.000000 1422.373535,269.000000 1374.088135,269.000000 
	C1373.679077,277.331329 1376.917725,284.248199 1381.226318,290.641144 
	C1393.251221,308.483459 1419.518433,312.228607 1436.767334,304.372284 
	C1445.900757,300.212311 1453.966187,293.707428 1463.350098,287.728241 
	C1476.047852,294.021393 1490.314087,301.078430 1504.563599,308.169434 
	C1506.626465,309.195984 1507.847656,310.034821 1505.845093,312.820618 
	C1495.011230,327.891266 1480.691528,338.493896 1463.949707,345.931305 
	C1447.451904,353.260284 1430.020630,356.102325 1412.045776,354.954346 
	C1386.281738,353.308960 1362.599731,346.332428 1342.845337,328.477081 
	C1325.288940,312.608704 1315.148071,293.121918 1312.052490,269.862976 
	C1311.038574,262.245300 1309.896118,254.517395 1310.142578,246.882828 
	C1310.917725,222.869980 1316.614380,200.094772 1331.239258,180.573151 
	C1346.007935,160.859482 1365.826660,148.266663 1390.194458,144.215286 
	C1401.809082,142.284241 1413.871826,141.552155 1425.620605,142.222076 
	C1453.766968,143.827011 1477.770386,155.209579 1496.123535,176.844467 
	C1506.321899,188.866348 1512.956787,203.000839 1516.050903,218.628342 
	C1516.191650,219.339294 1516.881104,219.941635 1517.657471,220.297287 
	C1518.000000,236.020889 1518.000000,252.041794 1518.000000,268.531342 
M1444.480713,229.000000 
	C1448.269897,229.000000 1452.059082,229.000000 1455.824707,229.000000 
	C1456.225464,216.260574 1446.980103,199.543808 1436.772705,194.341064 
	C1421.157715,186.381897 1405.238159,185.931931 1390.854004,196.093292 
	C1380.137695,203.663452 1374.012207,214.930481 1374.007812,229.000000 
	C1397.598267,229.000000 1420.542969,229.000000 1444.480713,229.000000 
z"/>
<path fill="#FFFFFF" opacity="1.000000" stroke="none" 
	d="
M307.531342,1.000000 
	C314.366119,9.105832 311.607361,18.615101 311.926270,27.591496 
	C312.257355,36.909878 312.009186,46.249180 311.996857,55.579311 
	C311.988159,62.147266 309.112915,64.997047 302.478851,64.997314 
	C205.845200,65.001221 109.211418,64.939827 12.578220,65.147942 
	C6.715877,65.160568 4.561471,61.576069 1.377833,58.002029 
	C1.000000,41.979103 1.000000,25.958210 1.309341,9.760362 
	C3.412455,6.722272 5.206227,3.861136 7.000000,1.000000 
	C107.020897,1.000000 207.041794,1.000000 307.531342,1.000000 
z"/>
<path fill="#FFFFFF" opacity="1.000000" stroke="none" 
	d="
M0.999998,119.468658 
	C1.671542,118.354935 2.620424,117.832138 2.967785,117.044167 
	C4.694556,113.127121 7.406820,110.971725 11.873070,110.975357 
	C60.355526,111.014778 108.838020,110.991196 157.320511,111.011269 
	C163.307297,111.013748 166.980011,114.776985 166.991135,120.850136 
	C167.018311,135.678070 167.024368,150.506134 166.988052,165.334015 
	C166.973419,171.303635 163.205566,174.989655 157.136322,174.991577 
	C109.153656,175.006714 61.170551,174.904190 13.188894,175.124603 
	C7.370445,175.151337 4.944281,171.351669 1.377242,168.001984 
	C1.000000,151.979111 1.000000,135.958206 0.999998,119.468658 
z"/>
<path fill="#000000" opacity="1.000000" stroke="none" 
	d="
M6.500528,1.000000 
	C5.206227,3.861136 3.412455,6.722272 1.309341,9.291704 
	C1.000000,6.431890 1.000000,3.863780 1.000000,1.000000 
	C2.662153,1.000000 4.331605,1.000000 6.500528,1.000000 
z"/>
<path fill="#FFFFFF" opacity="1.000000" stroke="none" 
	d="
M1186.735107,177.687408 
	C1201.642456,148.934952 1216.312134,120.487999 1231.002563,92.051796 
	C1234.101440,86.053139 1237.178711,80.038658 1240.491333,74.158516 
	C1241.238037,72.833046 1242.918945,71.147942 1244.185791,71.134552 
	C1262.642578,70.939423 1281.102051,71.000603 1300.279419,71.000603 
	C1300.279419,164.360703 1300.279419,257.371613 1300.279419,350.692352 
	C1279.754150,350.692352 1258.682251,350.692352 1236.653076,350.692352 
	C1236.653076,296.712799 1236.653076,242.603271 1236.653076,188.493744 
	C1236.150024,188.389954 1235.646851,188.286163 1235.143799,188.182373 
	C1232.087402,193.883072 1228.976318,199.555237 1225.984375,205.289597 
	C1215.639404,225.117722 1205.378662,244.989929 1195.004150,264.802612 
	C1184.929688,284.042389 1174.754639,303.229492 1164.328979,322.998596 
	C1154.536133,322.998596 1144.266968,323.069641 1134.002197,322.892029 
	C1132.940674,322.873657 1131.496338,321.596497 1130.918335,320.530121 
	C1122.719727,305.403107 1114.660156,290.200958 1106.527954,275.037872 
	C1091.863525,247.695068 1077.173828,220.365845 1062.480225,193.038635 
	C1062.340088,192.777878 1062.004517,192.622192 1061.326416,192.054214 
	C1061.326416,245.049225 1061.326416,297.679565 1061.326416,350.654663 
	C1039.830933,350.654663 1018.758179,350.654663 997.342285,350.654663 
	C997.342285,257.824127 997.342285,164.755829 997.342285,71.343658 
	C1016.175354,71.343658 1035.251221,71.343658 1054.558594,71.343658 
	C1085.831055,130.406738 1117.244019,189.734879 1149.011597,249.732956 
	C1154.398682,239.408661 1159.485229,229.645615 1164.585327,219.889633 
	C1171.886597,205.922623 1179.197754,191.960800 1186.735107,177.687408 
z"/>
<path fill="#FFFFFF" opacity="1.000000" stroke="none" 
	d="
M701.154602,352.998810 
	C688.149231,350.572662 676.243042,346.349365 665.116211,340.007141 
	C649.752014,331.249512 637.773315,319.160736 628.937805,303.810822 
	C622.088562,291.911682 617.721863,279.082306 616.186279,265.641937 
	C613.372864,241.016678 615.721375,216.937042 627.812256,194.645813 
	C642.761230,167.085342 666.356445,151.631592 696.568420,144.846741 
	C710.779785,141.655228 725.073486,141.276520 739.297180,142.204697 
	C761.578918,143.658646 782.354797,150.603577 800.026978,164.668396 
	C818.540161,179.402512 830.082642,198.867203 834.822205,221.949524 
	C836.879883,231.970505 838.044128,242.415375 837.789734,252.622253 
	C837.200806,276.254639 830.511475,298.314850 815.437317,316.855988 
	C801.307251,334.235840 782.754028,345.356171 761.024902,350.988220 
	C746.277222,354.810760 731.221191,355.567169 716.091675,354.927643 
	C711.242737,354.722656 706.429871,353.666565 701.154602,352.998810 
M776.000000,251.439178 
	C775.667603,246.033463 775.707581,240.573959 774.936096,235.231659 
	C772.127502,215.782013 757.073364,197.188583 735.998779,193.786957 
	C713.245300,190.114319 692.926331,199.359863 682.931274,219.663239 
	C675.107727,235.555511 674.480042,252.519547 679.798340,269.076935 
	C685.806274,287.781250 698.396240,299.794800 718.713257,303.200378 
	C729.699768,305.041962 740.212769,303.781494 749.317200,298.599823 
	C766.808777,288.644684 775.693115,272.772858 776.000000,251.439178 
z"/>
<path fill="#FFFFFF" opacity="1.000000" stroke="none" 
	d="
M499.000000,71.000000 
	C545.474731,71.000000 591.449463,71.000000 637.711914,71.000000 
	C637.711914,87.951797 637.711914,104.690254 637.711914,121.828293 
	C597.708557,121.828293 557.637085,121.828293 517.283569,121.828293 
	C517.283569,145.294815 517.283569,168.365952 517.283569,191.787811 
	C546.301086,191.787811 575.374817,191.787811 604.755798,191.787811 
	C595.939453,207.824188 590.851868,224.439346 590.845459,242.817627 
	C566.396179,242.817627 541.986633,242.817627 517.180908,242.817627 
	C517.180908,278.948395 517.180908,314.687012 517.180908,350.711975 
	C496.381073,350.711975 475.976318,350.711975 455.285156,350.711975 
	C455.285156,257.710297 455.285156,164.643082 455.285156,71.000000 
	C469.640167,71.000000 484.070099,71.000000 499.000000,71.000000 
z"/>
<path fill="#FFFFFF" opacity="1.000000" stroke="none" 
	d="
M860.739014,210.352371 
	C857.106323,202.953674 853.693909,195.899490 850.298279,188.837265 
	C849.823730,187.850327 849.062866,186.826355 849.056396,185.815536 
	C848.972168,172.689590 849.000549,159.562897 849.000549,146.000504 
	C862.798340,146.000504 876.247192,145.949524 889.693909,146.094162 
	C890.807739,146.106140 892.359436,147.183975 892.941895,148.203903 
	C897.565979,156.301163 902.004639,164.504318 906.555542,172.775436 
	C925.948364,149.874054 951.408386,141.287933 980.816040,141.981400 
	C980.181702,147.883362 979.428711,153.358459 979.036682,158.859299 
	C978.253113,169.854614 977.467590,180.857529 977.109558,191.871185 
	C976.985962,195.672333 976.200928,197.146347 972.080261,197.088257 
	C953.730652,196.829559 936.849609,201.668243 922.431946,213.296097 
	C915.181458,219.143631 910.453796,226.943954 909.067932,236.318741 
	C908.350708,241.170380 908.058350,246.124756 908.044678,251.034012 
	C907.957092,282.533112 908.000000,314.032593 908.000000,345.531921 
	C908.000000,347.173126 908.000000,348.814362 908.000000,350.726685 
	C888.350525,350.726685 868.945190,350.726685 849.001953,350.726685 
	C849.001953,337.483368 848.816650,324.209351 849.170288,310.949738 
	C849.234985,308.523010 851.370667,306.081696 852.757812,303.771729 
	C860.348083,291.131836 864.633545,277.442932 866.012878,262.797882 
	C866.256958,260.206360 866.848450,257.638977 866.970154,255.045883 
	C867.680969,239.902237 865.717346,225.105652 860.739014,210.352371 
z"/>
<path fill="#000000" opacity="1.000000" stroke="none" 
	d="
M1443.984131,229.000000 
	C1420.542969,229.000000 1397.598267,229.000000 1374.007812,229.000000 
	C1374.012207,214.930481 1380.137695,203.663452 1390.854004,196.093292 
	C1405.238159,185.931931 1421.157715,186.381897 1436.772705,194.341064 
	C1446.980103,199.543808 1456.225464,216.260574 1455.824707,229.000000 
	C1452.059082,229.000000 1448.269897,229.000000 1443.984131,229.000000 
z"/>
<path fill="#000000" opacity="1.000000" stroke="none" 
	d="
M776.000000,251.926056 
	C775.693115,272.772858 766.808777,288.644684 749.317200,298.599823 
	C740.212769,303.781494 729.699768,305.041962 718.713257,303.200378 
	C698.396240,299.794800 685.806274,287.781250 679.798340,269.076935 
	C674.480042,252.519547 675.107727,235.555511 682.931274,219.663239 
	C692.926331,199.359863 713.245300,190.114319 735.998779,193.786957 
	C757.073364,197.188583 772.127502,215.782013 774.936096,235.231659 
	C775.707581,240.573959 775.667603,246.033463 776.000000,251.926056 
z"/>
</svg>