<?xml version="1.0" encoding="UTF-8"?>
<svg id="Layer_1" data-name="Layer 1" xmlns="http://www.w3.org/2000/svg" viewBox="0 0 311.87 95.58">
  <defs>
    <style>
      .cls-1 {
        fill: none;
      }

      .cls-1, .cls-2 {
        stroke-width: 0px;
      }
    </style>
  </defs>
  <path class="cls-2" d="m0,45.94c.16-.22.36-.32.48-.48.69-.93,1.59-1.46,2.77-1.47,6.34,0,12.68,0,19.01,0,1.1,0,1.95.48,2.57,1.33,1.92,2.63,3.8,5.28,5.7,7.93,1.11,1.54,2.38,1.41,3.33-.12,3.01-4.86,5.93-9.78,8.89-14.67,2.45-4.04,4.94-8.07,7.39-12.11.47-.77,1.08-1.09,1.99-1.08,3.22.03,6.44.01,9.66.01,1.66,0,2.34.67,2.34,2.29,0,21.96,0,43.92.02,65.88,0,.8-.19,1.45-.69,2.07-4.19.06-8.45.06-12.74,0-.79-.83-.98-1.79-.98-2.83,0-12.23,0-24.46,0-36.69v-1.2c-1.08.23-1.32,1.11-1.78,1.75-3.42,4.78-6.81,9.59-10.27,14.34-.68.93-1.53,2.1-2.51,2.36-1.66.44-3.49.3-5.25.28-1.03-.01-1.91-.55-2.53-1.42-.37-.51-.75-1.02-1.12-1.53-3.17-4.47-6.34-8.94-9.51-13.4-.62-.88-1.29-1.72-1.93-2.58-.1.03-.21.05-.31.08-.05.37-.14.74-.14,1.11-.01,4.21,0,8.43,0,12.64,0,1.61-.67,2.29-2.24,2.29-2.74,0-5.48,0-8.22,0-1.33,0-2.75.29-3.73-1.02-.03-.03-.13,0-.2,0C0,61.81,0,53.92,0,45.94Z"/>
  <path class="cls-2" d="m311.87,55c-9.83.1-19.66.1-29.59.1-.08,1.71.58,3.13,1.47,4.45,2.47,3.67,7.87,4.44,11.42,2.82,1.88-.86,3.54-2.19,5.47-3.42,2.61,1.29,5.54,2.74,8.47,4.2.42.21.68.38.26.96-2.23,3.1-5.17,5.28-8.61,6.81-3.39,1.51-6.98,2.09-10.67,1.86-5.3-.34-10.17-1.77-14.23-5.44-3.61-3.26-5.69-7.27-6.33-12.05-.21-1.57-.44-3.15-.39-4.72.16-4.94,1.33-9.62,4.34-13.63,3.04-4.05,7.11-6.64,12.12-7.47,2.39-.4,4.87-.55,7.28-.41,5.79.33,10.72,2.67,14.49,7.12,2.1,2.47,3.46,5.38,4.1,8.59.03.15.17.27.33.34.07,3.23.07,6.53.07,9.92m-15.11-8.13h2.33c.08-2.62-1.82-6.06-3.92-7.13-3.21-1.64-6.48-1.73-9.44.36-2.2,1.56-3.46,3.87-3.46,6.77h14.49Z"/>
  <path class="cls-2" d="m63.02,0c1.41,1.67.84,3.62.9,5.47.07,1.92.02,3.84.01,5.75,0,1.35-.59,1.94-1.96,1.94-19.87,0-39.73-.01-59.6.03-1.21,0-1.65-.73-2.3-1.47C0,8.42,0,5.13.06,1.8.5,1.18.86.59,1.23,0h61.78Z"/>
  <path class="cls-2" d="m0,24.36c.14-.23.33-.34.4-.5.35-.81.91-1.25,1.83-1.25,9.97,0,19.93,0,29.9,0,1.23,0,1.99.77,1.99,2.02,0,3.05,0,6.1,0,9.15,0,1.23-.78,1.99-2.03,1.99-9.86,0-19.73-.02-29.59.03-1.2,0-1.69-.78-2.43-1.46C0,31.04,0,27.75,0,24.36Z"/>
  <path class="cls-2" d="m1.13,0C.86.59.5,1.18.06,1.7,0,1.12,0,.59,0,0h1.13Z"/>
  <path class="cls-2" d="m243.77,36.32c3.06-5.91,6.08-11.76,9.1-17.61.64-1.23,1.27-2.47,1.95-3.68.15-.27.5-.62.76-.62,3.79-.04,7.59-.03,11.53-.03v57.5h-13.08v-33.35c-.1-.02-.21-.04-.31-.06-.63,1.17-1.27,2.34-1.88,3.52-2.13,4.08-4.24,8.16-6.37,12.23-2.07,3.96-4.16,7.9-6.31,11.96-2.01,0-4.12.01-6.23-.02-.22,0-.52-.27-.63-.49-1.69-3.11-3.34-6.24-5.01-9.35-3.01-5.62-6.03-11.24-9.06-16.86-.03-.05-.1-.09-.24-.2v32.61h-13.15V14.46h11.76c6.43,12.14,12.89,24.34,19.42,36.67,1.11-2.12,2.15-4.13,3.2-6.14,1.5-2.87,3-5.74,4.55-8.68Z"/>
  <g>
    <path class="cls-1" d="m151.1,39.63c-4.68-.76-8.86,1.15-10.91,5.32-1.61,3.27-1.74,6.75-.64,10.16,1.24,3.85,3.82,6.32,8,7.02,2.26.38,4.42.12,6.29-.95,3.6-2.05,5.42-5.31,5.49-9.7-.07-1.11-.06-2.23-.22-3.33-.58-4-3.67-7.82-8-8.52Z"/>
    <path class="cls-1" d="m136.53,69.69c2.29,1.3,4.74,2.17,7.41,2.67,1.08.14,2.07.35,3.07.4-1-.04-1.99-.26-2.98-.4-2.77-.5-5.21-1.37-7.5-2.67Z"/>
    <path class="cls-2" d="m164.27,33.65c-3.63-2.89-7.9-4.32-12.49-4.62-2.92-.19-5.86-.11-8.78.54-6.21,1.39-11.06,4.57-14.14,10.24-2.49,4.58-2.97,9.53-2.39,14.6.32,2.76,1.21,5.4,2.62,7.85,1.82,3.16,4.28,5.64,7.44,7.44,2.29,1.3,4.74,2.17,7.5,2.67.99.14,1.98.35,2.98.4,3.11.13,6.21-.02,9.24-.81,4.47-1.16,8.28-3.44,11.19-7.02,3.1-3.81,4.47-8.35,4.6-13.21.05-2.1-.19-4.25-.61-6.31-.97-4.75-3.35-8.75-7.15-11.78Zm-10.43,27.53c-1.87,1.07-4.03,1.32-6.29.95-4.18-.7-6.77-3.17-8-7.02-1.09-3.4-.96-6.89.64-10.16,2.05-4.17,6.23-6.07,10.91-5.32,4.33.7,7.43,4.52,8,8.52.16,1.1.15,2.22.22,3.33-.06,4.39-1.89,7.65-5.49,9.7Z"/>
  </g>
  <path class="cls-2" d="m102.38,14.39h28.52v10.45h-24.76v14.38h17.98c-1.81,3.3-2.86,6.71-2.86,10.49h-15.14v22.18h-12.72V14.39h8.99Z"/>
  <path class="cls-2" d="m176.75,43.04c-.75-1.52-1.45-2.97-2.15-4.42-.1-.2-.25-.41-.26-.62-.02-2.7-.01-5.4-.01-8.19,2.84,0,5.6-.01,8.37.02.23,0,.55.22.67.43.95,1.66,1.86,3.35,2.8,5.05,3.99-4.71,9.22-6.47,15.27-6.33-.13,1.21-.29,2.34-.37,3.47-.16,2.26-.32,4.52-.4,6.79-.03.78-.19,1.08-1.03,1.07-3.77-.05-7.24.94-10.21,3.33-1.49,1.2-2.46,2.81-2.75,4.73-.15,1-.21,2.02-.21,3.03-.02,6.48,0,12.95,0,19.43v1.07h-12.13c0-2.72-.04-5.45.03-8.18.01-.5.45-1,.74-1.48,1.56-2.6,2.44-5.41,2.73-8.42.05-.53.17-1.06.2-1.59.15-3.11-.26-6.16-1.28-9.19Z"/>
</svg>