<svg xmlns="http://www.w3.org/2000/svg" viewBox="0 0 24 24" width="24" height="24" fill="none" stroke="#141B34" stroke-width="1.5" stroke-linecap="round" stroke-linejoin="round">
    <path d="M8.5 14.5H15.5M8.5 9.5H12" />
    <path d="M14.1706 20.8905C18.3536 20.6125 21.6856 17.2332 21.9598 12.9909C22.0134 12.1607 22.0134 11.3009 21.9598 10.4707C21.6856 6.22838 18.3536 2.84913 14.1706 2.57107C12.7435 2.47621 11.2536 2.47641 9.8294 2.57107C5.64639 2.84913 2.31441 6.22838 2.04024 10.4707C1.98659 11.3009 1.98659 12.1607 2.04024 12.9909C2.1401 14.536 2.82343 15.9666 3.62791 17.1746C4.09501 17.7588 4.07852 18.54 3.84509 19.2388C3.65874 19.7963 3.3831 20.4341 3.21597 21.0064C2.93527 21.9644 3.84587 22.8221 4.78479 22.4874C5.36755 22.2838 5.95488 22.0253 6.44618 21.7281C7.14813 21.3034 7.60835 21.2655 8.29453 21.5143C8.77553 21.6891 9.28925 21.8035 9.82937 21.8905C11.2535 22.0365 12.7434 22.0367 14.1706 20.8905Z" />
</svg>